# File created by Blade
# Date/Time:  Tue Jan 27 19:38:14 2015
# Frame Rate: 120.000 fps
#------------------------------------------------------
:FULLY-SPECIFIED
:DEGREES
1732
root 4.207882 32.286344 2.240123 -4.925432 -3.348161 0.642733
Spine 1.350097 22.838666 -0.362866
Head 15.189277 -16.618581 -5.404229
LeftShoulder -6.290852 -5.099720 22.005694
LeftArm -1.793729 30.090485 -97.206009
LeftForeArm 6.537821 -0.000000 7.328150
LeftHand 10.202646 -0.000000 -4.662184
LeftHandThumb1 -26.253704 0.000000 33.147579
RightShoulder 2.228847 6.746851 -34.195633
RightArm 88.384239 -61.893009 33.713015
RightForeArm -3.687373 -0.000000 68.344194
RightHand 21.774676 -0.000000 9.293442
RightHandThumb1 -24.326973 -0.000000 -32.862282
LeftUpLeg 9.111738 -0.935148 -3.169901
LeftLeg 4.111972 -0.000000 -0.000000
LeftFoot -18.833604 14.180546 -22.726206
LeftToeBase 16.408906 -0.000000 -0.000000
RightUpLeg 7.397608 -4.031759 3.250039
RightLeg 4.301701 -0.000000 -0.000000
RightFoot -13.558761 -13.553880 12.424388
RightToeBase 8.789880 -0.000000 -0.000000
1733
root 4.212882 32.287177 2.240639 -4.908018 -3.300484 0.637205
Spine 1.332474 22.711811 -0.334602
Head 15.157375 -16.632424 -5.294814
LeftShoulder -6.257628 -5.037101 22.078343
LeftArm -1.808782 30.104972 -97.301893
LeftForeArm 6.407496 -0.000000 7.215417
LeftHand 10.328677 -0.000000 -4.607493
LeftHandThumb1 -26.253704 0.000000 33.147579
RightShoulder 2.161309 6.644926 -34.167423
RightArm 87.107265 -61.987130 35.094662
RightForeArm -3.942415 -0.000000 68.311184
RightHand 21.808848 0.000000 8.894158
RightHandThumb1 -24.326973 -0.000000 -32.862282
LeftUpLeg 9.096696 -1.032196 -3.189901
LeftLeg 4.107520 -0.000000 -0.000000
LeftFoot -18.863254 14.226062 -22.801509
LeftToeBase 16.411101 -0.000000 -0.000000
RightUpLeg 7.378034 -4.034841 3.251224
RightLeg 4.317250 -0.000000 -0.000000
RightFoot -13.562839 -13.605844 12.438738
RightToeBase 8.737618 -0.000000 -0.000000
1734
root 4.217136 32.288156 2.241612 -4.889643 -3.258551 0.642619
Spine 1.318700 22.584479 -0.324799
Head 15.096779 -16.629345 -5.168637
LeftShoulder -6.247183 -5.018061 22.150621
LeftArm -1.852548 30.172435 -97.410294
LeftForeArm 6.319087 -0.000000 7.084803
LeftHand 10.348161 0.000000 -4.569129
LeftHandThumb1 -26.253704 0.000000 33.147579
RightShoulder 2.011461 6.288963 -34.089606
RightArm 86.296306 -61.844544 36.020769
RightForeArm -3.867664 -0.000000 68.234439
RightHand 21.831551 0.000000 8.620087
RightHandThumb1 -24.326973 -0.000000 -32.862282
LeftUpLeg 9.087732 -1.057897 -3.200791
LeftLeg 4.071728 -0.000000 -0.000000
LeftFoot -18.822905 14.236783 -22.758292
LeftToeBase 16.397011 -0.000000 -0.000000
RightUpLeg 7.371353 -3.987168 3.244000
RightLeg 4.305350 -0.000000 -0.000000
RightFoot -13.586846 -13.644775 12.502160
RightToeBase 8.866352 -0.000000 -0.000000
1735
root 4.221437 32.288617 2.242687 -4.883620 -3.212136 0.625279
Spine 1.323315 22.423907 -0.279683
Head 15.014563 -16.608807 -5.024261
LeftShoulder -6.254306 -4.964095 22.219380
LeftArm -1.866172 30.237007 -97.504823
LeftForeArm 6.290476 0.000000 6.966857
LeftHand 10.398508 -0.000000 -4.687118
LeftHandThumb1 -26.253704 0.000000 33.147579
RightShoulder 1.925000 6.179639 -34.029635
RightArm 84.795021 -61.904684 37.577712
RightForeArm -3.700307 0.000000 68.246762
RightHand 21.850688 0.000000 8.630294
RightHandThumb1 -24.326973 -0.000000 -32.862282
LeftUpLeg 9.091342 -1.140079 -3.208096
LeftLeg 4.058445 -0.000000 -0.000000
LeftFoot -18.857417 14.279617 -22.791192
LeftToeBase 16.384663 -0.000000 -0.000000
RightUpLeg 7.355128 -4.029335 3.257302
RightLeg 4.335587 -0.000000 -0.000000
RightFoot -13.580520 -13.690780 12.470321
RightToeBase 8.754234 -0.000000 -0.000000
